<?xml version="1.0" encoding="UTF-8" standalone="no"?>
<!-- Created with Inkscape (http://www.inkscape.org/) -->

<svg
   xmlns:dc="http://purl.org/dc/elements/1.1/"
   xmlns:cc="http://creativecommons.org/ns#"
   xmlns:rdf="http://www.w3.org/1999/02/22-rdf-syntax-ns#"
   xmlns:svg="http://www.w3.org/2000/svg"
   xmlns="http://www.w3.org/2000/svg"
   xmlns:sodipodi="http://sodipodi.sourceforge.net/DTD/sodipodi-0.dtd"
   xmlns:inkscape="http://www.inkscape.org/namespaces/inkscape"
   version="1.1"
   id="svg7244"
   xml:space="preserve"
   width="800"
   height="800"
   viewBox="0 0 800 800"
   sodipodi:docname="turtle-publicdomainvectors.org [Converted].svg"
   inkscape:version="0.92.4 (5da689c313, 2019-01-14)"><metadata
     id="metadata7250"><rdf:RDF><cc:Work
         rdf:about=""><dc:format>image/svg+xml</dc:format><dc:type
           rdf:resource="http://purl.org/dc/dcmitype/StillImage" /><dc:title /></cc:Work></rdf:RDF></metadata><defs
     id="defs7248"><clipPath
       clipPathUnits="userSpaceOnUse"
       id="clipPath7260"><path
         d="M 0,600 H 600 V 0 H 0 Z"
         id="path7258"
         inkscape:connector-curvature="0" /></clipPath></defs><sodipodi:namedview
     pagecolor="#ffffff"
     bordercolor="#666666"
     borderopacity="1"
     objecttolerance="10"
     gridtolerance="10"
     guidetolerance="10"
     inkscape:pageopacity="0"
     inkscape:pageshadow="2"
     inkscape:window-width="1920"
     inkscape:window-height="1018"
     id="namedview7246"
     showgrid="false"
     inkscape:zoom="0.69570833"
     inkscape:cx="513.55932"
     inkscape:cy="359.32203"
     inkscape:window-x="-8"
     inkscape:window-y="-8"
     inkscape:window-maximized="1"
     inkscape:current-layer="g7252" /><g
     id="g7252"
     inkscape:groupmode="layer"
     inkscape:label="turtle-publicdomainvectors.org [Converted]"
     transform="matrix(1.3333333,0,0,-1.3333333,0,800)"><g
       id="g7254"><g
         id="g7256"
         clip-path="url(#clipPath7260)"><path
           d="m 343.38,364.421 c 0,-1.769 -1.435,-3.203 -3.204,-3.203 -1.77,0 -3.202,1.434 -3.202,3.203 0,1.77 1.432,3.204 3.202,3.204 1.769,0 3.204,-1.434 3.204,-3.204 m -93.591,4.152 c 0,-1.768 -1.434,-3.203 -3.204,-3.203 -1.767,0 -3.203,1.435 -3.203,3.203 0,1.769 1.436,3.203 3.203,3.203 1.77,0 3.204,-1.434 3.204,-3.203 M 243.89,179.414 c 0,1.49 1.208,2.696 2.695,2.696 1.488,0 2.697,-1.206 2.697,-2.696 0,-1.488 -1.209,-2.694 -2.697,-2.694 -1.487,0 -2.695,1.206 -2.695,2.694 m 102.507,0 c 0,1.49 1.207,2.696 2.694,2.696 1.489,0 2.697,-1.206 2.697,-2.696 0,-1.488 -1.208,-2.694 -2.697,-2.694 -1.487,0 -2.694,1.206 -2.694,2.694 m 11.82,63.369 c 0,-1.488 -1.207,-2.696 -2.694,-2.696 -1.489,0 -2.696,1.208 -2.696,2.696 0,1.488 1.207,2.693 2.696,2.693 1.487,0 2.694,-1.205 2.694,-2.693 m -2.693,65.203 c 0,-1.488 -1.209,-2.694 -2.697,-2.694 -1.487,0 -2.693,1.206 -2.693,2.694 0,1.49 1.206,2.695 2.693,2.695 1.488,0 2.697,-1.205 2.697,-2.695 m -119.569,-1.26 c 0,1.489 1.206,2.695 2.693,2.695 1.49,0 2.696,-1.206 2.696,-2.695 0,-1.489 -1.206,-2.695 -2.696,-2.695 -1.487,0 -2.693,1.206 -2.693,2.695 m -3.639,-65.675 c 0,1.286 1.045,2.33 2.33,2.33 1.288,0 2.33,-1.044 2.33,-2.33 0,-1.288 -1.042,-2.33 -2.33,-2.33 -1.285,0 -2.33,1.042 -2.33,2.33 m 59.569,136.362 c 0,2.418 1.96,4.38 4.378,4.38 2.419,0 4.378,-1.962 4.378,-4.38 0,-2.418 -1.959,-4.378 -4.378,-4.378 -2.418,0 -4.378,1.96 -4.378,4.378 m -2.331,-192.558 c 0,4.365 3.536,7.902 7.903,7.902 4.362,0 7.901,-3.537 7.901,-7.902 0,-4.367 -3.539,-7.903 -7.901,-7.903 -4.367,0 -7.903,3.536 -7.903,7.903 m 14.689,60.009 c 0,-3.014 -2.441,-5.456 -5.455,-5.456 -3.012,0 -5.455,2.442 -5.455,5.456 0,3.013 2.443,5.455 5.455,5.455 3.014,0 5.455,-2.442 5.455,-5.455 m 5.096,65.166 c 0,-5.828 -4.724,-10.552 -10.551,-10.552 -5.826,0 -10.551,4.724 -10.551,10.552 0,5.826 4.725,10.549 10.551,10.549 5.827,0 10.551,-4.723 10.551,-10.549 m 94.612,68.704 c -3.222,2.285 -3.978,6.748 -1.692,9.967 2.289,3.22 6.751,3.977 9.968,1.692 3.22,-2.285 3.978,-6.749 1.692,-9.97 -2.288,-3.217 -6.75,-3.974 -9.968,-1.689 m 2.336,-36.604 c -1.116,-4.892 -10.064,-7.452 -18.323,-7.452 -4.524,0 -6.922,0.762 -7.335,1.091 -2.616,2.863 -10.689,30.022 -8.733,34.402 0.515,1.151 4.106,2.864 11.892,2.864 4.828,0 9.951,-0.689 12.812,-1.72 2.827,-2.112 11.032,-23.304 9.687,-29.185 m 1.175,-17.807 c 2.72,-2.238 5.726,-24.112 3.413,-29.974 -0.736,-1.872 -2.603,-2.921 -4.683,-3.503 -3.133,-0.044 -5.469,0.248 -8.132,0.248 -1.447,0 -3.689,-0.292 -6.736,0.163 -3.229,0.727 -5.706,1.64 -6.388,2.163 -2.061,3.365 -4.696,30.384 -1.855,34.451 0.453,0.648 2.107,1.34 5.396,1.34 6.433,0 15.345,-2.591 18.985,-4.888 m 4.235,-70.716 c -0.81,-3.249 -5.321,-3.931 -8.961,-3.931 -1.289,0 -2.597,0.087 -3.882,0.232 -1.008,0.18 -2.007,0.329 -2.984,0.441 -4.49,0.816 -8.21,2.159 -9.03,2.749 -1.652,3.59 -1.99,27.65 0.776,31.615 0.846,1.212 4.536,2.438 9.952,2.438 6.035,0 11.822,-1.573 13.589,-3.678 1.147,-2.931 1.813,-24.773 0.54,-29.866 m -27.289,34.892 c 0.093,-0.041 0.188,-0.079 0.283,-0.117 -0.087,-0.083 -0.18,-0.158 -0.264,-0.244 -0.006,0.121 -0.013,0.24 -0.019,0.361 m 23.485,-70.655 c -0.67,-3.643 -1.202,-6.521 -1.334,-7.97 -0.243,-2.621 -2.839,-3.949 -7.719,-3.949 -1.144,0 -2.296,0.075 -3.42,0.203 -2.832,1.109 -5.667,1.768 -8.085,1.804 -1.066,0.363 -1.865,0.704 -2.265,0.944 -1.603,4.295 -2.558,31.986 0.082,35.768 0.323,0.461 2.025,1.331 6.166,1.331 7.935,0 17.856,-3.217 19.293,-6.242 0.883,-2.304 -1.549,-15.534 -2.718,-21.889 m 3.648,-27.972 c 13.456,-16.903 19.712,-39.044 17.421,-46.212 -4.158,11.319 -16.018,17.838 -22.983,17.838 -0.745,0 -1.483,-0.043 -2.211,-0.127 2.765,6.645 6.717,20.609 7.773,28.501 m 30.04,-36.873 c 25.457,-48.285 -0.75,-88.528 -13.195,-100.215 17.954,21.558 1.742,60.175 -3.42,72.262 9.623,-4.557 13.273,22.694 16.615,27.953 m -33.84,-16.256 c -3.818,-0.999 -7.725,1.284 -8.725,5.106 -1.003,3.82 1.279,7.726 5.103,8.727 3.821,1.001 7.729,-1.284 8.729,-5.103 0.997,-3.82 -1.285,-7.729 -5.107,-8.73 m -16.108,24.194 c -6.553,0 -13.549,5.833 -14.072,8.587 -1.056,5.522 3.507,30.825 7.46,33.33 0.436,0.277 1.188,0.427 2.116,0.427 6.212,0 16.517,-6.009 17.767,-10.297 0.496,-3.119 -6.129,-26.984 -7.959,-30.16 -1.413,-1.253 -3.199,-1.887 -5.312,-1.887 m -16.656,-38.979 c -0.911,-0.857 -1.921,-1.276 -3.089,-1.276 -2.485,0 -5.316,1.747 -7.822,3.937 -0.93,1.021 -1.909,1.988 -2.91,2.877 -2.094,2.318 -3.599,4.559 -3.838,5.467 -0.441,3.421 8.237,24.758 12.582,27.512 0.291,0.184 0.754,0.282 1.336,0.282 5.396,0 16.219,-7.693 17.804,-12.619 0.659,-3.614 -11.627,-23.747 -14.063,-26.18 M 349.974,92.99 c -0.834,-0.544 -1.719,-0.809 -2.707,-0.809 h -10e-4 c -2.098,0 -4.34,1.1 -6.464,2.707 -3.313,3.184 -5.205,5.564 -7.689,8.433 -1.037,1.577 -1.706,2.903 -1.836,3.607 0.412,3.323 14.723,18.411 20.108,20.324 0.19,0.069 0.401,0.101 0.64,0.101 4.117,0 12.135,-8.734 14.879,-15.054 -0.758,-3.302 -13.329,-16.96 -16.93,-19.309 m -11.127,-9.857 c -1.273,-2.475 -13.437,-9.185 -16.015,-9.246 -2.193,0.079 -4.29,1.461 -6.23,4.104 -4.456,6.072 -6.063,15.737 -5.082,18.364 1.167,1.469 8.845,3.428 15.592,3.428 1.103,0 2.035,-0.07 2.772,-0.209 4.634,-0.883 9.779,-10.357 8.963,-16.441 M 312.359,65.174 c -1.557,-1.884 -7.738,-3.788 -16.538,-3.788 h -0.003 c -8.744,0 -14.783,1.846 -16.026,3.585 -0.162,0.225 -0.18,0.353 -0.089,0.619 0.515,1.514 1.738,5.505 3.287,10.556 2.805,9.148 6.647,21.678 7.967,24.877 0.369,0.894 2.083,1.45 4.472,1.45 3.391,0 6.76,-1.083 7.639,-1.725 1.253,-3.26 7.754,-24.861 9.604,-34.56 0.058,-0.311 0.028,-0.602 -0.313,-1.014 m -41.217,6.943 c -0.298,0 -0.596,0.062 -0.912,0.185 -4.573,1.79 -16.239,12.157 -18.144,14.948 -1.025,1.507 -0.216,4.062 0.36,5.451 2.268,5.486 7.878,10.88 10.879,11.45 0.708,0.135 1.52,0.203 2.414,0.203 5.444,0 12.79,-2.569 15.372,-5.348 1.222,-1.85 -0.156,-13.469 -4.497,-21.529 -1.835,-3.406 -3.828,-5.36 -5.472,-5.36 m -26.854,24.846 c -0.955,0 -1.818,0.25 -2.637,0.766 -1.905,1.804 -13.971,18.157 -14.832,20.432 -0.354,0.944 0.243,2.671 1.592,4.613 3.903,5.624 12.164,10.919 15.717,10.919 0.311,0 0.487,-0.046 0.563,-0.073 4.76,-1.69 15.185,-19.03 15.065,-22.267 -0.146,-0.996 -1.566,-3.475 -3.642,-6.103 -0.817,-1.21 -2.019,-2.557 -4.276,-4.559 -2.427,-2.138 -5.104,-3.728 -7.55,-3.728 m -24.124,29.573 c -1.449,0 -2.635,0.378 -3.566,1.106 -2.379,2.368 -11.589,22.793 -11.832,26.183 1.597,4.982 10.98,11.959 16.164,11.959 0.596,0 1.079,-0.106 1.399,-0.309 4.567,-2.894 15.534,-23.82 15.504,-27.002 -0.116,-0.624 -0.841,-1.704 -1.974,-2.965 -0.884,-0.914 -1.877,-1.902 -3.051,-2.918 -1.466,-1.269 -3.221,-2.576 -5.478,-3.841 -2.389,-1.312 -4.892,-2.213 -7.166,-2.213 m -21.931,15.313 c -1,-3.822 -4.907,-6.105 -8.726,-5.106 -3.821,1.001 -6.106,4.91 -5.107,8.73 1.001,3.819 4.907,6.104 8.727,5.103 3.824,-1.001 6.106,-4.907 5.106,-8.727 m -25.421,-0.198 c -6.635,0.471 -6.652,26.202 9.861,48.11 1.989,-10.207 6.211,-27.414 10.724,-30.739 -7.957,1.034 -17.169,-3.624 -20.585,-17.371 m -3.949,-88.867 c -12.446,11.687 -38.654,51.93 -13.196,100.215 3.342,-5.259 6.992,-32.51 16.615,-27.953 -9.278,-16.114 -21.374,-50.704 -3.419,-72.262 m 15.572,161.299 c -1.127,5.219 -2.07,29.53 -1.634,31.943 0.483,2.175 6.27,4.6 13.805,4.6 5.203,0 7.929,-1.198 8.49,-2.004 2.923,-4.186 4.607,-31.443 2.186,-34.675 -1.424,-1.406 -8.474,-4.002 -14.775,-4.002 h -0.001 c -4.763,0.002 -7.479,1.393 -8.071,4.138 m -4.61,44.722 c -0.594,3.239 2.232,27.308 3.31,30.595 1.65,2.181 6.795,3.749 12.381,3.749 5.073,0 8.257,-1.255 9.071,-2.419 2.702,-3.872 0.934,-30.536 -0.831,-34.063 -0.474,-0.385 -1.98,-0.999 -4.143,-1.51 -1.113,-0.178 -1.895,-0.336 -2.896,-0.469 -0.016,-0.002 -0.032,-0.004 -0.05,-0.007 -0.229,-0.03 -0.459,-0.05 -0.687,-0.077 -2.264,-0.273 -4.559,-0.387 -7.408,-0.194 -3.314,0.363 -7.15,1.447 -8.747,4.395 m 7.994,71.168 c 3.388,2.395 10.675,4.387 16.162,4.387 3.561,0 5.406,-0.823 5.944,-1.594 2.936,-4.204 -0.843,-33.52 -3.679,-36.468 -0.167,-0.154 -0.413,-0.316 -0.716,-0.48 -3.315,1.749 -7.825,1.991 -10.014,1.991 -3.159,0 -6.934,-0.485 -10.178,-1.663 -0.819,0.714 -1.452,1.623 -1.779,2.78 -2.299,8.152 2.607,28.019 4.26,31.047 m -9.15,50.45 c -2.286,3.221 -1.526,7.685 1.691,9.97 3.22,2.285 7.682,1.528 9.969,-1.692 2.286,-3.219 1.528,-7.682 -1.691,-9.967 -3.219,-2.285 -7.681,-1.528 -9.969,1.689 m 40.66,-8.286 c 2.031,-4.549 -3.6,-28.758 -6.632,-31.674 -0.2,-0.169 -1.281,-0.604 -3.835,-0.604 -7.931,0 -19.171,3.809 -20.356,6.854 -0.24,4.316 5.636,28.346 9.881,29.594 1.541,0.453 3.652,0.704 5.946,0.704 7.068,0 13.796,-2.186 14.996,-4.874 m 1.735,43.966 c 0.465,0.037 0.983,0.056 1.54,0.056 8.798,0 19.758,-3.766 20.219,-6.95 0.602,-4.155 -14.968,-24.125 -19.595,-29.102 -0.177,-0.041 -0.553,-0.103 -1.215,-0.103 -5.025,0 -16.877,3.595 -17.022,10.564 -0.034,3.661 12.562,23.625 16.073,25.535 m 16.575,13.539 c 2.058,2.576 18.713,14.997 25.615,16.603 5.897,-1.767 13.437,-14.062 12.404,-18.693 -0.938,-4.214 -22.621,-15.082 -26.934,-15.082 h -0.009 c -1.681,0.098 -8.925,5.018 -11.443,10.667 -1.163,2.611 -1.043,4.739 0.367,6.505 m 47.131,-18.879 c 7.376,8.445 14.91,11.702 24.751,-1.165 5.048,-6.601 12.641,-46.109 9.286,-52.344 -3.353,-6.239 -38.144,-4.753 -43.918,-0.435 -5.776,4.319 5.135,48.512 9.881,53.944 m -16.408,77.209 c -0.962,0 -1.911,0.134 -2.823,0.391 -1.519,0.43 -2.937,1.204 -4.141,2.283 -2.22,1.988 -3.492,4.825 -3.492,7.781 0,3.953 2.198,7.523 5.736,9.319 1.486,0.754 3.074,1.135 4.72,1.135 5.765,0 10.456,-4.689 10.456,-10.454 0,-5.764 -4.691,-10.455 -10.456,-10.455 m 25.429,-33.443 c 10.484,0 19.24,-1.844 21.071,-2.958 0.681,-3.306 -1.665,-19.308 -3.798,-22.923 -0.309,-0.168 -1.794,-0.79 -6.931,-0.79 -7.503,0 -17.857,1.302 -21.258,1.727 l -0.497,0.064 c -2.304,2.185 -6.019,17.804 -5.619,21.704 2.678,1.998 8.957,3.176 17.032,3.176 m 29.555,54.352 c 1.545,0 3.05,-0.342 4.473,-1.018 3.634,-1.726 5.982,-5.43 5.982,-9.436 0,-2.935 -1.195,-5.657 -3.366,-7.666 -1.944,-1.799 -4.462,-2.789 -7.089,-2.789 -5.765,0 -10.456,4.691 -10.456,10.455 0,5.765 4.691,10.454 10.456,10.454 m 0.636,-72.979 c 3.475,4.332 7.69,7.36 10.251,7.36 0.176,0 0.342,-0.015 0.452,-0.035 3.32,-0.85 25.062,-11.552 26.058,-17.102 0.856,-4.743 -1.836,-8.917 -3.515,-10.981 -3.537,-4.347 -8.281,-6.768 -10.947,-6.839 l -0.064,-0.001 c -5.946,0 -25.676,13.282 -26.727,17.989 -0.337,1.52 1.121,5.404 4.492,9.609 m 50.485,-142.733 c -1.987,-6.6 -34.458,-20.063 -36.743,-16.363 -2.285,3.703 -12.422,56.115 -4.784,59.683 7.638,3.559 30.411,-5.721 36.747,-11.841 6.331,-6.119 6.771,-24.878 4.78,-31.479 m -4.513,-80.283 c -4.33,-7.56 -31.935,13.987 -35.057,16.483 -3.124,2.493 -1.891,26.766 1.742,31.566 3.631,4.794 31.402,18.182 37.395,11.521 8.1,-8.994 -0.816,-53.878 -4.08,-59.57 m -50.047,-95.559 c 2.794,14.396 10.742,86.25 13.207,89.899 2.465,3.652 30.004,-6.912 35.538,-10.87 5.534,-3.96 -7.155,-43.126 -22.965,-60.335 -13.973,-15.208 -27.136,-25.691 -25.78,-18.694 m -46.822,90.954 c 3.448,2.874 44.542,3.893 48.548,-0.666 4.006,-4.558 -9.968,-90.734 -17.175,-95.289 -7.208,-4.553 -4.686,-5.078 -12.394,-1.308 -7.706,3.778 -22.426,94.381 -18.979,97.263 m -47.563,-15.808 c 3.977,3.889 32.616,18.174 36.109,13.138 3.492,-5.042 7.947,-40.335 17.411,-84.888 3.079,-14.499 -25.702,9.826 -37.553,26.565 -13.246,18.712 -19.944,41.296 -15.967,45.185 m 37.191,145.833 c 5.274,-6.092 -0.319,-56.88 -2.31,-61.169 -1.988,-4.29 -40.986,7.086 -43.676,13.259 -4.285,9.836 -2.408,23.935 2.81,31.31 6.029,8.521 37.901,22.685 43.176,16.6 m 2.654,16.472 c -3.388,-4.8 -33.963,-21.324 -40.486,-16.007 -3.26,2.658 -4.405,5.708 -3.942,9.736 0.204,1.785 0.728,3.764 1.518,5.986 1.829,5.133 5.1,11.564 9.277,19.933 10.06,20.157 41.152,40.805 44.784,36.142 -7.637,-16.577 -7.762,-50.992 -11.151,-55.79 m 59.094,-73.19 c -5.486,-5.034 -49.651,-4.982 -52.942,0.655 -3.291,5.641 0.893,54.632 5.934,60.151 5.043,5.518 35.958,5.265 41.147,-0.498 5.188,-5.758 11.347,-55.265 5.861,-60.308 m -3.479,-59.137 c -3.736,-5.75 -37.493,-4.857 -42.614,-0.217 -5.124,4.632 -11.735,34.715 -7.012,43.376 4.72,8.66 46.774,5.964 53.622,1.432 6.846,-4.53 -0.259,-38.841 -3.996,-44.591 m 5.654,129.259 c -4.286,4.195 2.3,38.765 -7.748,57.111 -2.471,4.515 28.383,-16.741 38.442,-36.891 10.06,-20.158 12.979,-35.634 11.066,-38.203 -1.913,-2.571 -37.475,13.784 -41.76,17.983 M 218.794,277.241 c 3.542,4.577 37.538,-9.355 40.331,-14.178 2.794,-4.824 6.77,-33.339 4.414,-38.947 -2.354,-5.61 -39.155,-23.88 -43.224,-19.492 -5.33,5.744 -12.498,58.439 -1.521,72.617 M 197.429,164.712 c -2.657,2.797 -8.905,28.464 -8.994,31.853 0.602,3.958 11.426,9.56 18.531,9.56 1.626,0 2.327,-0.333 2.553,-0.475 3.94,-2.499 10.79,-28.57 10.077,-32.476 -0.222,-0.763 -1.561,-2.196 -3.526,-3.723 -0.436,-0.316 -0.859,-0.615 -1.284,-0.912 -1.866,-1.296 -3.745,-2.421 -6.712,-3.65 -2.057,-0.79 -4.184,-1.304 -6.199,-1.304 -1.718,0 -3.213,0.38 -4.446,1.127 m 171.984,248.913 c 1.507,0 2.703,-0.264 3.364,-0.737 3.173,-2.38 19.559,-21.154 18.465,-25 -2.303,-6.879 -14.688,-11.266 -20.396,-11.266 -1.148,0 -1.663,0.167 -1.825,0.237 -0.533,0.724 -1.491,1.911 -2.786,3.512 -0.669,0.831 -1.318,1.64 -1.942,2.423 -9.348,11.754 -13.491,18.378 -13.312,20.945 0.49,0.554 1.071,1.157 1.697,1.776 2.235,2.206 5.176,4.658 7.693,6.136 2.983,1.164 6.212,1.974 9.042,1.974 m -211.457,-31.11 c -17.459,-6.395 -48.943,-25.149 -49.02,-53.204 -3.354,16.804 3.708,64.628 54.229,85.3 -0.814,-6.175 -15.516,-29.413 -5.209,-32.096 m 325.697,-53.204 c -0.08,28.055 -31.562,46.809 -49.02,53.204 10.305,2.683 -4.396,25.921 -5.208,32.096 50.52,-20.672 56.264,-68.348 54.228,-85.3 m -3.049,-29.833 c 40.221,50.637 -9.948,147.856 -100.75,126.999 0.013,-0.002 0.028,-0.005 0.042,-0.007 7.743,-7.35 13.903,-14.629 19.435,-25.11 0,0 -4,15.114 -2.292,20.227 19.506,-8.222 30.55,-22.795 26.526,-26.683 -11.73,8.557 -22.005,5.883 -27.343,-0.343 -5.23,10.686 -19.178,23.869 -19.374,24.008 -2.281,1.629 -5.368,2.313 -9.355,1.954 0.481,2.305 0.528,4.62 0.131,6.841 -2.026,11.24 -30.107,22.433 -31.573,22.716 -3.501,0.673 -7.442,-0.632 -11.498,-3.805 -1.033,1.424 -1.919,2.819 -2.648,4.171 -0.047,1.725 -0.249,3.029 -0.617,3.971 -0.318,0.818 -0.877,1.566 -1.664,2.232 -0.588,3.163 -0.758,10.04 13.7,13.874 l 1.74,0.461 -0.007,1.801 c -0.023,5.211 -0.244,10.38 -0.638,15.397 2.574,2.784 4.041,6.45 4.041,10.245 0,5.418 -2.966,10.45 -7.641,13.121 -3.714,14.761 -10.978,30.486 -19.569,42.271 -1.064,1.459 -2.544,2.232 -4.279,2.232 -1.926,0 -3.838,-0.94 -5.863,-1.933 -2.075,-1.019 -4.221,-2.072 -6.291,-2.079 -2.035,-10e-4 -4.358,1.017 -6.602,2.003 -2.226,0.974 -4.328,1.896 -6.328,1.896 -1.866,0 -3.399,-0.807 -4.432,-2.332 -7.496,-11.071 -13.484,-26.046 -16.921,-42.264 -4.523,-2.733 -7.287,-7.582 -7.287,-12.915 0,-3.898 1.538,-7.637 4.233,-10.444 -0.48,-12.86 2.03,-17.564 3.605,-19.216 0.256,-0.269 0.857,-0.9 1.876,-0.9 h 0.456 l 0.42,0.172 c 0.567,0.229 1.169,0.345 1.795,0.345 3.831,0 8.19,-4.228 10.203,-9.605 -1.706,-0.733 -3.121,-1.611 -4.222,-2.624 -1.17,-1.076 -1.752,-2.87 -1.765,-5.589 -1.561,1.125 -3.297,2.061 -5.128,2.522 -0.434,0.11 -0.887,0.164 -1.35,0.164 -5.782,0 -28.778,-16.227 -31.19,-19.249 -2.618,-3.275 -3.335,-7.307 -2.096,-11.535 -3.638,0.604 -7.213,0.826 -9.882,0.576 -1.581,-0.149 -4.873,-0.461 -13.827,-14.415 -2.824,-4.4 -7.331,-11.965 -8.208,-16.636 -4.523,7.917 -15.898,12.571 -29.143,2.911 -4.026,3.89 7.031,18.478 26.56,26.697 1.719,-5.101 -2.289,-20.239 -2.289,-20.239 5.533,10.484 11.696,17.763 19.442,25.115 -90.804,20.857 -140.975,-76.362 -100.752,-126.999 7.247,29.975 35.116,65.461 69.753,69.257 1.8,0.197 3.434,0.512 4.945,0.904 -3.277,-9.263 -5.807,-21.839 -4.913,-24.816 0.881,-2.924 3.423,-5.146 6.338,-6.795 -1.87,-0.803 -3.485,-1.703 -4.75,-2.659 -4.151,-3.144 -9.194,-28.876 -6.525,-38.341 0.284,-1.005 0.683,-1.955 1.195,-2.844 -0.294,-0.332 -0.559,-0.674 -0.794,-1.026 -1.711,-2.536 -5.883,-33.102 -3.718,-37.369 0.95,-1.877 2.326,-3.468 4.102,-4.756 -0.81,-1.059 -1.36,-2.226 -1.64,-3.491 -0.786,-3.535 0.415,-29.329 1.625,-34.934 0.445,-2.063 2.024,-6.364 7.548,-8.453 -2.134,-2.159 -3.383,-4.473 -3.665,-6.832 -0.045,-0.371 0.242,-2.434 0.785,-5.415 -78.471,-43.587 -54.282,-147.241 8.085,-160.039 -13.691,27.635 -15.11,72.735 9.008,97.883 2.075,2.161 3.631,4.285 4.786,6.341 3.187,-6.737 6.674,-12.801 8.069,-13.897 2.145,-1.682 4.684,-2.572 7.557,-2.645 -0.132,-1.616 0.151,-2.909 0.495,-3.83 1.148,-3.084 14.728,-21.985 17.451,-23.775 2.093,-1.374 4.434,-2.039 6.924,-1.968 -0.174,-2.523 0.386,-4.787 1.667,-6.665 2.54,-3.725 15.24,-15.121 21.37,-17.518 1.626,-0.635 3.338,-0.815 4.984,-0.539 0.019,-1.54 0.507,-3.047 1.441,-4.353 4.203,-5.874 16.582,-6.507 21.712,-6.507 5.019,0 17.203,0.616 21.925,6.323 1.594,1.927 2.234,4.293 1.811,6.675 1.004,-0.291 2.036,-0.456 3.091,-0.494 l 0.183,-0.002 c 4.65,0 21.947,8.563 22.913,15.087 0.153,1.03 0.199,2.128 0.141,3.286 2.887,-0.324 5.553,0.326 7.908,1.866 0.238,0.154 21.592,18.138 19.945,26.699 2.245,0.354 4.269,1.373 6.032,3.035 1.239,1.168 7.168,9.833 11.412,17.845 1.276,-2.223 2.952,-4.419 5.021,-6.576 23.024,-24.009 22.455,-67.276 8.601,-95.235 l -2.118,-4.275 4.674,0.958 c 30.249,6.206 53.78,34.048 58.546,69.276 2.516,18.572 -0.494,37.049 -8.701,53.441 -9.139,18.252 -24.683,33.361 -44.955,43.694 l -1.325,0.676 c -0.762,1.552 -1.854,2.952 -3.024,4.163 4.519,2.405 5.441,6.479 5.618,8.392 0.105,1.142 0.66,4.159 1.247,7.349 2.872,15.609 3.807,22.689 2.168,26.136 -0.534,1.119 -1.341,2.175 -2.418,3.16 2.423,1.849 3.497,4.171 3.964,6.039 1.07,4.287 1.688,31.308 -1.692,35.707 -0.323,0.422 -0.692,0.827 -1.107,1.216 0.71,0.893 1.276,1.878 1.696,2.948 2.771,7.021 0.845,34.007 -6.154,38.427 -1.142,0.721 -2.595,1.442 -4.267,2.125 3.293,2.14 5.391,4.932 6.145,8.235 1.138,4.976 -2.517,19.641 -7.284,29.081 1.534,-0.402 3.205,-0.717 5.036,-0.918 34.635,-3.796 62.505,-39.282 69.752,-69.257"
           style="fill:#231f20;fill-opacity:1;fill-rule:nonzero;stroke:none"
           id="path7262"
           inkscape:connector-curvature="0" /></g></g></g></svg>